# xmcd
#
# Track frame offsets:
#	150
#	21968
#	45749
#	73897
#	105201
#	127644
#	148441
#	180284
#	204373
#	233705
#	257813
#	284874
#	311280
#	330933
#
# Disc length: 4761 seconds
#
# Revision: 2
# Processed by: cddbd v1.5.1PL0 Copyright (c) Steve Scherf et al.
# Submitted via: audiograbber 1.83.01
#
DISCID=c212970e
DTITLE=Cafe del Mar - Ibiza Vol. 4
DYEAR=1900
DGENRE=
TTITLE0=01.Jose Padilla - Que Bonito 
TTITLE1=02.John Martyn - Sunshines Better (Talvin Singh
TTITLE2=03.Indo-Aminata - Leo Leo
TTITLE3=04.Paco Fernandez - Grillos
TTITLE4=05.Voices of Kwahn A.D. - Return Journey
TTITLE5=06.Les Jumeaux - Miracle Road
TTITLE6=07.Wasis Diop feat. Lena Fiagbe - No Sant (Flytronix Mix)
TTITLE7=08.Levitation - Out Of Time
TTITLE8=09.Fila Brazillia - Place De La Concorde
TTITLE9=10.Chicane - Offshore (Ambient Mix)
TTITLE10=11.Afterlife - 5th and Avenida
TTITLE11=12.Karen Ramirez - Troubled Girl (Spanish Version)
TTITLE12=13.Phil Mison - Lula
TTITLE13=14.Stan Getz - Street Tattoo
EXTD=
EXTT0=
EXTT1=
EXTT2=
EXTT3=
EXTT4=
EXTT5=
EXTT6=
EXTT7=
EXTT8=
EXTT9=
EXTT10=
EXTT11=
EXTT12=
EXTT13=
PLAYORDER=
